<svg width="513" height="192" viewBox="0 0 513 192" fill="none" xmlns="http://www.w3.org/2000/svg">
<path d="M160.643 68.1383L127.014 94.8299V139.314H152.277V114.472H168.681V139.314H194.948V96.1727L160.643 68.1383Z" fill="url(#paint0_linear_1_20)"/>
<path d="M207.122 96.5084H202.86V91.1625L188.299 79.5839V60.2081H175.159V69.7092L160.965 58.4409L118.268 91.6819V96.5084H114V89.5853L160.99 53L170.897 60.8605V55.9263H192.568V77.5127L207.122 89.0976V96.5084Z" fill="url(#paint1_linear_1_20)"/>
<path d="M258.159 93.9811V128.939H252.432V104.021L241.831 121.597H241.136L230.535 103.97V128.939H224.808V93.9811H230.983L241.49 111.463L252.041 93.9811H258.159V93.9811Z" fill="#2D3C5C"/>
<path d="M291.416 93.9811L279.268 115.054V128.939H273.541V115.061L261.399 93.9811H267.921L276.433 109.461L284.894 93.9811H291.416Z" fill="#2D3C5C"/>
<path d="M314.514 128.939L307.145 116.201H300.376V128.939H294.649V93.9811H308.591C311.71 93.9811 314.356 95.0706 316.534 97.2495C318.706 99.4284 319.792 102.089 319.792 105.218C319.792 107.447 319.155 109.487 317.873 111.336C316.597 113.186 314.924 114.522 312.872 115.358L320.79 128.945H314.514V128.939ZM300.376 99.3777V111.064H308.591C310.119 111.064 311.413 110.5 312.474 109.366C313.535 108.233 314.065 106.852 314.065 105.224C314.065 103.596 313.535 102.209 312.474 101.082C311.413 99.9478 310.119 99.3841 308.591 99.3841H300.376V99.3777Z" fill="#2D3C5C"/>
<path d="M330.394 123.447H344.582V128.939H324.667V93.9811H330.394V123.447V123.447Z" fill="#2D3C5C"/>
<path d="M367.483 93.9811V99.4727H357.678V128.939H351.951V99.4791H342.094V93.9811H367.483Z" fill="#2D3C5C"/>
<path d="M398 93.9811L385.851 115.054V128.939H380.125V115.061L367.982 93.9811H374.505L383.016 109.461L391.477 93.9811H398Z" fill="#2D3C5C"/>
<defs>
<linearGradient id="paint0_linear_1_20" x1="127.011" y1="103.728" x2="194.95" y2="103.728" gradientUnits="userSpaceOnUse">
<stop stop-color="#2B3D5C"/>
<stop offset="1" stop-color="#0E1E36"/>
</linearGradient>
<linearGradient id="paint1_linear_1_20" x1="114" y1="74.7552" x2="207.124" y2="74.7552" gradientUnits="userSpaceOnUse">
<stop stop-color="#2B3D5C"/>
<stop offset="1" stop-color="#0E1E36"/>
</linearGradient>
</defs>
</svg>
